<?xml version="1.0" encoding="UTF-8"?>
<svg version="1.1" viewBox="0 0 1024 1024" width="1024" height="1024" xmlns="http://www.w3.org/2000/svg">
<path transform="translate(101,372)" d="m0 0h822l5 5v227l-2 4 2 5v99l-2 5-4 2-58 1h-33l-197 1-4 8-6 5-3 2h-220l-9-8-4-7-164-1h-121l-5-3-1-2v-110l-1-2v-225l3-5z" fill="#000806"/>
<path transform="translate(97,607)" d="m0 0 4 1h825l2 5v99l-2 5-4 2-58 1h-33l-197 1-4 8-6 5-3 2h-220l-9-8-4-7-164-1h-121l-5-3-1-2z" fill="#FDCB00"/>
<path transform="translate(394,269)" d="m0 0h231l7 2 3 4v68l-2 4-3 2h-237l-5-5v-70l4-4z" fill="#030A06"/>
<path transform="translate(501,419)" d="m0 0h16l15 4 14 7 10 8 7 7 7 11 5 11 3 14v18l-3 15-7 14-10 13-10 8-12 7-13 4-7 1h-14l-13-2-13-5-10-6-10-9-7-8-8-16-3-11-1-6v-15l3-16 8-16 6-8 10-10 14-8 11-4z" fill="#FCFCF9"/>
<path transform="translate(597,419)" d="m0 0h32l1 1 1 84 6 12 7 6 10 4h10l10-3 7-5 5-8 2-7 1-84h33l1 73-1 22-4 13-7 11-5 6-12 9-11 5-16 3h-17l-10-2-13-5-11-8-8-8-8-14-4-15v-89z" fill="#FCFCF9"/>
<path transform="translate(226,419)" d="m0 0h73l-2 5-13 19-8 11-50 1-6 4-1 2v9l5 4 6 1 22 1 10 4 10 9 6 9 3 9v16l-3 11-6 10-4 5-8 6-11 5-4 1h-72l2-5 12-18 7-10 45-1 5-3 2-5-1-6-2-3-3-1-23-1-12-4-8-6-8-9-4-10-1-6v-10l2-11 6-12 10-11 10-6z" fill="#FCFBF7"/>
<path transform="translate(360,419)" d="m0 0h14l16 3 16 8 11 8 4 4-1 4-8 7-7 7-7 6-4-1-8-7-11-4h-13l-10 3-9 6-6 7-4 9-1 5v13l3 10 7 9 8 6 13 4h10l10-3 9-7 3-4 4 2 14 12 8 7-2 4-4 5-11 9-14 7-15 3h-14l-15-3-12-5-9-6-10-9-8-11-5-10-4-16v-20l4-17 7-13 9-11 12-10 16-8z" fill="#FCFCF9"/>
<path transform="translate(742,419)" d="m0 0h122l1 2-11 18-9 12-3 3h-38v107h-33l-1-1-1-106h-27z" fill="#FCFAF3"/>
<path transform="translate(501,453)" d="m0 0h13l10 3 9 6 6 7 4 8 2 7v11l-4 12-6 8-8 7-9 4-4 1h-11l-13-4-9-7-6-7-4-11v-17l4-10 7-9 11-7z" fill="#000807"/>
<path transform="translate(97,607)" d="m0 0 4 1h825l1 7h-174l-36-1h-24v-1l8-1h-58-4l-3-1v2l-5 2h-144l-74-1-4-2-45-1-75 1-3 1-11 1h-51l-4-2h-41l-13 1v1l-15 1h-36l-5-1v-2l-7 1-4 2h-2z" fill="#F6BC03"/>
<path transform="translate(470,283)" d="m0 0h30l17 29 12 20v2h-21l-14-21-8-10-4-1-10 17 18 1 9 13v1h-57l6-12 13-23z" fill="#FCFBF8"/>
<path transform="translate(542,638)" d="m0 0h18l1 1v34h6v15h-6v14h-17v-14h-30v-12l14-19z" fill="#000807"/>
<path transform="translate(476,638)" d="m0 0h12l8 4 6 7 2 4v11l-4 8-13 13 17 1 1 1v14l-7 2h-18l-23-1v-12l11-10 11-9 7-6 1-7v-2l-5-1-4 2-1 6h-19l1-10 4-7 7-6z" fill="#000807"/>
<path transform="translate(522,285)" d="m0 0h21l11 14h2l8-12 3-2 19 1-4 6-11 14-6 8 1 4 9 10 4 6h-19l-12-15-11-14-11-13-4-5z" fill="#FCFAF3"/>
<path transform="translate(401,286)" d="m0 0h42v16h-15v32h-17v-32h-10z" fill="#FCFAF2"/>
<path transform="translate(146,469)" d="m0 0 3 1 6 16 8 11 2 3-8 11-7 16-2 4h-2l-6-15-9-12-5-5 7-5 7-11z" fill="#FDCB00"/>
<path transform="translate(875,469)" d="m0 0h2l8 18 8 9 4 4-9 9-7 12-4 10h-2l-6-16-6-9-4-5 1-4 6-7 4-8z" fill="#FDCB00"/>
<path transform="translate(601,286)" d="m0 0h17v48h-16l-1-28z" fill="#FCFBF6"/>
<path transform="translate(660,658)" d="m0 0h36v17h-36z" fill="#000807"/>
<path transform="translate(613,658)" d="m0 0h36v17h-36z" fill="#000807"/>
<path transform="translate(327,658)" d="m0 0h36v17h-36z" fill="#000807"/>
<path transform="translate(254,658)" d="m0 0h36v17h-36z" fill="#000807"/>
<path transform="translate(733,658)" d="m0 0h35l1 1v16h-36z" fill="#000807"/>
<path transform="translate(375,658)" d="m0 0h35v17h-36v-15z" fill="#000807"/>
<path transform="translate(337,304)" d="m0 0h26v18h-26l-6-5-5-3v-2l10-7z" fill="#010806"/>
<path transform="translate(659,304)" d="m0 0h26l8 7 2 1v2l-8 6-2 2h-26z" fill="#000806"/>
<path transform="translate(543,664)" d="m0 0h1v9h-7l3-5z" fill="#F7BE03"/>
</svg>
